<?xml version="1.0" standalone="no"?>
<!DOCTYPE svg PUBLIC "-//W3C//DTD SVG 20010904//EN"
 "http://www.w3.org/TR/2001/REC-SVG-20010904/DTD/svg10.dtd">
<svg version="1.0" xmlns="http://www.w3.org/2000/svg"
 width="786.000000pt" height="786.000000pt" viewBox="0 0 786.000000 786.000000"
 preserveAspectRatio="xMidYMid meet">
<metadata>
Created by potrace 1.11, written by Peter Selinger 2001-2013
</metadata>
<g transform="translate(0.000000,786.000000) scale(0.100000,-0.100000)"
fill="#000000" stroke="none">
<path d="M4633 7448 c-2 -95 4 -88 -63 -88 -33 0 -60 -3 -61 -7 -1 -5 -2 -33
-3 -63 l-1 -55 -62 0 c-70 0 -64 7 -66 -86 l-1 -47 -60 2 -61 1 -3 -62 c-2
-51 -6 -63 -20 -64 -9 0 -37 -2 -62 -2 -49 -2 -47 2 -49 -84 l-1 -43 -128 0
-128 0 1 63 0 62 -59 2 c-32 1 -61 5 -64 8 -3 3 -6 31 -7 63 l-1 57 -119 1
c-156 2 -146 0 -137 27 4 12 5 40 2 62 l-5 40 -255 0 -255 0 0 60 0 60 -60 2
c-33 0 -64 2 -70 3 -5 1 -36 2 -67 1 l-57 -1 -3 -62 -3 -63 -57 1 c-54 0 -57
-1 -62 -25 -3 -23 -3 -63 2 -96 1 -6 27 -11 60 -10 l57 0 3 -127 3 -127 62 -3
62 -3 2 -61 2 -60 -257 0 -257 1 0 126 0 127 -50 -2 c-66 -2 -82 6 -79 41 8
83 3 207 -8 214 -10 7 -107 4 -114 -4 -3 -3 -6 -60 -6 -126 0 -67 -3 -121 -7
-122 -3 0 -32 -1 -64 -2 l-58 -1 1 -35 c1 -20 2 -49 1 -66 l-1 -30 -62 0 -63
0 -2 -345 c-1 -190 -2 -361 -2 -381 l-1 -36 -63 -1 -63 -1 0 62 c-1 69 6 64
-89 66 l-40 1 1 117 c0 65 -1 123 -3 129 -2 6 -26 10 -56 9 -29 -1 -56 0 -62
2 -6 2 -10 53 -9 128 1 107 -2 125 -15 126 -89 6 -103 4 -109 -10 -3 -8 -6
-67 -6 -130 l-1 -116 -55 0 c-30 1 -58 -4 -63 -10 -4 -5 -6 -30 -5 -56 1 -25
-1 -49 -4 -55 -3 -5 -33 -8 -66 -8 l-60 2 2 -109 c0 -60 -2 -109 -6 -109 -4 0
-3 -12 1 -27 8 -34 7 -136 -3 -151 -3 -6 -3 -13 2 -15 4 -3 7 -27 6 -54 l-2
-48 63 1 c61 2 63 1 67 -25 1 -14 1 -44 -2 -66 l-5 -40 -118 0 c-69 0 -122 4
-126 10 -4 5 -7 63 -6 128 l0 117 -52 1 c-29 1 -59 2 -65 3 -9 1 -13 20 -12
64 1 69 12 62 -90 66 l-40 1 0 125 -1 125 -62 1 -63 1 0 -256 0 -257 -63 1
-62 0 -5 -52 c-3 -29 -3 -53 0 -53 3 0 4 -21 2 -47 -2 -27 -3 -55 -3 -63 4
-75 1 -171 -4 -180 -3 -5 -2 -10 3 -10 6 0 7 -14 2 -34 -4 -19 -4 -40 1 -47 4
-7 3 -21 -2 -30 -5 -10 -6 -20 -2 -22 5 -3 7 -34 5 -69 -4 -80 -2 -129 6 -158
1 -3 28 -6 59 -5 l58 1 5 -66 5 -65 60 0 60 0 1 -50 c1 -27 2 -55 3 -62 1 -8
24 -13 64 -15 l62 -3 1 -62 0 -63 -63 0 c-43 0 -63 -4 -64 -12 0 -7 -2 -35 -2
-63 l-2 -50 -63 0 -63 0 3 -192 3 -193 -30 -1 c-16 -1 -46 0 -67 1 l-36 1 0
-43 c0 -90 4 -84 -59 -87 -31 -1 -60 -4 -64 -7 -4 -2 -6 -29 -5 -59 2 -62 -5
-68 -77 -62 -21 2 -41 -1 -46 -7 -4 -6 -7 -36 -6 -66 l1 -55 54 0 c30 -1 60
-4 65 -7 6 -4 10 -32 10 -62 -1 -64 -17 -58 148 -58 l107 0 0 -129 0 -129 -64
0 c-58 0 -89 -11 -69 -23 5 -3 7 -34 5 -69 -2 -34 -3 -72 -3 -83 0 -11 1 -60
1 -110 1 -50 5 -92 11 -96 6 -3 35 -5 65 -3 l54 3 0 -64 c0 -36 3 -65 8 -66
40 -6 112 -3 115 6 2 5 4 61 3 123 -1 62 1 116 4 120 3 4 32 7 65 7 l60 0 0
62 c0 35 2 63 5 64 42 5 113 2 118 -6 11 -17 8 -375 -3 -376 -5 -1 -34 -1 -62
-2 -31 0 -53 -5 -54 -11 -1 -6 -2 -33 -3 -61 l-1 -50 -62 -3 c-69 -3 -65 3
-66 -85 l-1 -49 -33 5 c-18 3 -35 2 -38 -2 -2 -5 -16 -6 -30 -3 l-25 4 0 -255
0 -256 63 -3 62 -3 1 -105 c2 -167 -4 -150 59 -147 30 2 58 1 63 -2 5 -3 8
-61 8 -129 -1 -137 -11 -123 84 -126 l45 -1 0 -60 0 -60 55 -3 c66 -3 78 -16
73 -76 -4 -38 -1 -46 18 -57 17 -9 24 -9 27 0 2 6 8 8 14 5 6 -4 24 -7 39 -6
31 1 32 0 30 -80 l-1 -47 38 1 c98 2 93 5 90 -62 -2 -35 1 -61 7 -62 5 0 57
-2 115 -4 58 -1 112 -2 121 -3 13 -1 16 -12 14 -57 -2 -63 6 -71 70 -68 22 1
45 -2 50 -7 6 -4 10 -33 9 -63 -1 -45 2 -56 15 -57 9 0 67 -1 129 -1 126 -1
115 7 114 -85 -1 -43 -2 -43 53 -43 92 0 120 -2 127 -6 4 -3 8 -2 8 3 0 4 15
8 34 8 33 0 34 -1 34 -40 0 -104 -5 -97 62 -93 33 1 61 1 61 -2 1 -3 2 -89 3
-192 1 -160 -1 -187 -14 -190 -8 -2 -66 -3 -127 -2 -127 1 -113 11 -116 -86
-2 -34 -6 -44 -17 -41 -21 5 -90 2 -101 -5 -5 -3 -9 -16 -9 -30 l0 -24 1155 0
1155 0 0 29 c0 26 -3 29 -40 33 -22 2 -47 1 -57 -3 -10 -4 -25 -3 -33 1 -8 4
-23 5 -32 1 -10 -3 -50 -4 -89 -1 -39 3 -73 2 -76 -3 -3 -4 -10 -4 -16 1 -7 5
-21 6 -32 2 -11 -4 -34 -4 -52 1 -18 4 -33 4 -33 0 0 -4 -12 -6 -28 -3 l-27 4
0 126 0 127 -50 1 c-86 2 -81 -2 -80 64 1 48 -2 60 -14 61 -9 1 -36 2 -61 3
-43 1 -45 2 -50 36 -3 19 -3 50 1 68 4 17 3 32 -1 32 -5 0 -5 12 -1 28 7 27 6
80 -3 89 -2 2 -1 17 4 33 5 18 4 32 -3 39 -8 8 -8 11 0 11 5 0 8 11 6 24 l-5
23 179 1 c98 0 185 1 194 1 12 1 15 12 14 54 -1 28 0 57 2 63 3 7 84 10 256
10 l252 -1 0 -62 c-1 -70 -6 -66 82 -65 48 1 54 -8 49 -80 l-3 -47 58 1 c33 1
62 -2 66 -6 4 -3 6 -33 6 -66 l0 -60 63 1 c70 1 66 -4 66 82 0 52 0 51 91 47
36 -2 37 -1 38 37 1 21 2 49 2 63 l2 25 125 0 125 0 2 -55 c2 -73 2 -74 9 -67
4 3 14 3 23 -2 9 -5 25 -5 35 -1 11 3 37 4 58 0 20 -4 40 -5 42 -2 3 2 83 4
178 3 201 -2 251 -1 257 4 2 2 11 0 21 -5 10 -5 20 -7 23 -4 3 4 84 6 179 5
201 -2 251 -1 257 4 2 2 11 0 21 -5 10 -5 20 -6 24 -3 3 4 39 7 79 7 l72 1 3
62 3 61 124 -1 c69 -1 126 0 126 3 8 33 5 120 -5 122 -6 0 -92 2 -191 2 l-180
2 -5 64 -5 64 -60 1 -60 0 0 63 c-1 49 2 62 15 63 8 0 180 1 383 1 l367 0 1
32 c2 36 0 53 -6 82 -4 19 -9 21 -37 15 -18 -4 -44 -5 -58 -1 -23 5 -25 9 -25
65 l-1 60 -194 2 c-107 1 -223 2 -257 2 l-63 1 0 64 0 64 48 0 c88 0 82 -4 82
62 0 33 3 61 8 61 4 1 118 2 255 3 l247 1 1 -25 c1 -14 0 -33 -1 -44 -1 -10 1
-28 4 -40 5 -20 10 -22 65 -18 l60 4 3 -68 3 -67 55 0 c47 0 57 3 67 23 7 14
8 31 3 45 -5 13 -6 25 -3 29 5 5 7 119 3 141 -1 6 -2 13 -1 18 5 18 3 108 -2
113 -3 3 -2 16 3 29 5 13 7 25 5 26 -8 9 -12 66 -5 84 4 11 4 30 -1 42 -5 12
-5 24 0 27 4 3 5 28 1 56 -4 27 -4 50 -1 50 9 0 5 69 -3 78 -4 4 -33 7 -64 7
l-57 0 -5 66 -5 65 -53 -1 c-29 0 -57 2 -63 6 -6 3 -9 31 -7 65 l3 58 255 1
255 0 -1 63 0 62 45 1 c87 2 84 1 83 42 -2 96 5 87 -65 87 l-62 0 0 63 0 62
-62 -1 c-70 0 -66 -5 -64 84 0 23 -3 43 -7 43 -4 1 -32 3 -62 4 l-55 2 -2 58
c-1 31 -4 59 -6 61 -2 2 -32 5 -65 6 l-62 2 0 64 c0 36 4 61 9 57 5 -3 12 -2
14 2 3 5 57 7 120 6 l115 -1 -2 60 c-1 33 2 61 6 64 4 2 33 5 66 5 l59 1 -2
54 c-2 61 5 77 31 74 11 -1 37 -2 59 -1 l40 1 0 62 0 63 54 2 c30 1 60 4 66 7
10 4 11 83 1 111 -2 6 -96 10 -255 9 -247 0 -258 1 -251 31 6 24 -1 89 -10 95
-5 3 -34 5 -65 3 l-55 -2 0 64 0 65 -64 0 -64 0 0 129 1 129 125 1 c69 0 127
3 130 6 3 2 5 31 4 63 l0 58 54 -2 c30 -1 58 4 63 10 5 6 8 35 7 64 0 28 1 52
4 53 3 1 32 2 65 3 l60 1 1 60 0 60 -385 5 -386 5 1 188 c0 103 -4 188 -8 188
-4 1 -30 2 -57 3 -27 0 -53 4 -56 8 -10 10 -12 129 -3 135 5 2 5 9 1 16 -9 15
-10 57 -1 63 4 3 5 11 1 19 -4 12 5 15 48 15 30 0 59 4 66 8 13 8 13 106 0
119 -4 4 -33 6 -63 5 l-56 -1 4 34 c2 19 1 35 -2 35 -3 0 -5 13 -4 29 l2 29
-62 -1 -61 -1 -5 65 -5 65 -60 0 c-56 -1 -60 1 -59 22 0 12 -2 22 -5 22 -4 0
-5 20 -3 44 l4 43 -64 -1 -63 -1 0 -60 c0 -39 -4 -62 -13 -65 -10 -4 -352 -5
-372 -1 -3 1 -4 30 -2 65 l4 64 51 0 c29 0 57 0 62 1 7 1 10 134 10 384 l0
383 -62 -2 c-70 -3 -66 -8 -63 77 1 51 -4 56 -60 53 -85 -4 -79 -1 -70 -33 4
-16 6 -32 3 -35 -3 -3 -6 -18 -7 -33 -1 -27 -4 -28 -51 -29 -27 -1 -55 -2 -62
-3 -8 -1 -11 -20 -9 -61 1 -33 0 -61 -3 -61 -3 -1 -33 -2 -66 -3 l-60 -2 0
-62 c0 -34 -3 -62 -7 -63 -10 -1 -71 -1 -101 0 -21 1 -24 6 -24 49 -1 84 3 79
-63 77 -33 -1 -60 1 -61 4 0 3 -1 33 -2 66 l-2 60 -62 -1 c-70 -2 -65 -8 -65
79 0 51 4 49 -78 51 -52 1 -47 -12 -49 163 l-1 92 -47 -1 c-27 0 -55 1 -64 1
-14 1 -16 29 -15 256 l1 255 -66 0 -66 0 0 -42z"/>
</g>
</svg>
